<svg xmlns="http://www.w3.org/2000/svg" xmlns:xlink="http://www.w3.org/1999/xlink" width="102" height="82" version="1.1" viewBox="0 0 102 82"><title>3-Enveloppe_part</title><desc>Created with Sketch.</desc><g id="Styleguide" fill="none" fill-rule="evenodd" stroke="none" stroke-width="1"><g id="PIctos" transform="translate(-601.000000, -402.000000)"><g id="3-Enveloppe_part" transform="translate(601.000000, 402.000000)"><g id="1-copy-2" transform="translate(0.000000, 5.000000)"><path id="Fill-13" fill="#20458F" d="M0.556349186,15.5563492 C0.556349186,23.8268037 7.28589464,30.5563492 15.5563492,30.5563492 C23.8268037,30.5563492 30.5563492,23.8268037 30.5563492,15.5563492 C30.5563492,7.28589464 23.8268037,0.556349186 15.5563492,0.556349186 C7.28589464,0.556349186 0.556349186,7.28589464 0.556349186,15.5563492 Z"/><text id="3" fill="#FFF" font-family="Montserrat-Bold, Montserrat" font-size="16" font-weight="bold" line-spacing="22"><tspan x="11.064" y="20">3</tspan></text></g><g id="UI/illu/courrier_quotidien_couleur" transform="translate(21.000000, 0.000000)"><g id="courrier-quotidien"><g id="Group"><polygon id="Path" fill="#E09045" points="60.72 0 60.841 42.507 33.367 38.558"/><g id="Path"><polygon fill="#E09045" points="33.397 39.071 60.841 42.507 .242 77.388 29.015 41.573 31.221 42.085"/><polyline fill="#E09045" points="30.496 41.452 28.32 40.94 .121 34.88 60.72 0 32.642 38.468 31.977 39.402"/><polygon fill="#E09045" points=".121 34.88 27.625 41.844 .242 77.388"/><polygon fill="#FFF" points="60.72 0 60.72 0 33.367 38.558 60.841 42.507 60.841 42.507 60.841 42.507 32.672 39.493 30.496 42.507 28.29 41.995 .242 77.388 .242 77.388 .242 77.388 27.625 41.844 .121 34.88 .121 34.88 .272 35.031 28.32 40.94 30.496 41.452 30.496 41.452 31.977 39.402 32.642 38.468"/></g></g><g id="Group" transform="translate(9.369403, 2.411765)"><polygon id="Path" fill="#FED147" points="60.841 .06 60.962 42.568 33.458 38.618"/><g id="Path"><polygon fill="#FED147" points="33.518 39.131 60.962 42.568 .363 77.448 29.136 41.633 31.342 42.146"/><polyline fill="#FED147" points="30.617 41.513 28.441 41 .242 34.94 60.841 .06 32.763 38.498 32.068 39.462"/><polygon fill="#FED147" points=".242 34.94 27.746 41.904 .363 77.448"/><polygon fill="#FFF" points="60.841 .06 60.841 .06 33.458 38.618 60.962 42.568 60.962 42.568 60.962 42.568 32.793 39.523 30.617 42.568 28.41 42.055 .363 77.448 .363 77.448 .363 77.448 27.746 41.904 .242 34.94 .242 34.94 .363 35.091 28.441 41 30.617 41.513 30.617 41.513 32.068 39.462 32.763 38.498"/></g></g><g id="Group" transform="translate(19.947761, 4.522059)"><polygon id="Path" fill="#F4F4F4" points="60.81 .09 60.931 42.598 33.428 38.649"/><g id="Path"><polygon fill="#F4F4F4" points="32.884 39.161 60.931 42.598 .332 77.478 28.501 41.663 30.707 42.176"/><polygon fill="#F4F4F4" points="30.587 41.844 28.41 41.332 .212 34.971 60.81 .09 32.732 38.528 32.068 39.493"/><polygon fill="#F4F4F4" points=".212 34.971 27.715 41.935 .332 77.478"/><polygon fill="#CECECE" points="33.428 38.649 60.931 42.598 32.763 39.553 30.587 42.598 28.38 42.085 .332 77.478 27.715 41.935 .212 34.971 .363 35.121 28.41 41.03 30.587 41.543 32.068 39.493 32.732 38.528 60.81 .09"/></g></g></g></g></g></g></g></svg>