<?xml version="1.0" encoding="UTF-8"?>
<svg width="102px" height="82px" viewBox="0 0 102 82" version="1.1" xmlns="http://www.w3.org/2000/svg" xmlns:xlink="http://www.w3.org/1999/xlink">
    <!-- Generator: Sketch 55.2 (78181) - https://sketchapp.com -->
    <title>3-Enveloppe_part</title>
    <desc>Created with Sketch.</desc>
    <g id="Styleguide" stroke="none" stroke-width="1" fill="none" fill-rule="evenodd">
        <g id="PIctos" transform="translate(-601.000000, -402.000000)">
            <g id="3-Enveloppe_part" transform="translate(601.000000, 402.000000)">
                <g id="1-copy-2" transform="translate(0.000000, 5.000000)">
                    <path d="M0.556349186,15.5563492 C0.556349186,23.8268037 7.28589464,30.5563492 15.5563492,30.5563492 C23.8268037,30.5563492 30.5563492,23.8268037 30.5563492,15.5563492 C30.5563492,7.28589464 23.8268037,0.556349186 15.5563492,0.556349186 C7.28589464,0.556349186 0.556349186,7.28589464 0.556349186,15.5563492 Z" id="Fill-13" fill="#20458F"></path>
                    <text id="3" font-family="Montserrat-Bold, Montserrat" font-size="16" font-weight="bold" line-spacing="22" fill="#FFFFFF">
                        <tspan x="11.064" y="20">3</tspan>
                    </text>
                </g>
                <g id="UI/illu/courrier_quotidien_couleur" transform="translate(21.000000, 0.000000)">
                    <g id="courrier-quotidien">
                        <g id="Group">
                            <polygon id="Path" fill="#E09045" points="60.7197761 0 60.8406716 42.5073529 33.3671642 38.5580882"></polygon>
                            <g id="Path">
                                <polygon fill="#E09045" points="33.3973881 39.0705882 60.8406716 42.5073529 0.241791045 77.3875 29.0149254 41.5727941 31.2212687 42.0852941"></polygon>
                                <polyline fill="#E09045" points="30.4958955 41.4522059 28.3197761 40.9397059 0.120895522 34.8801471 60.7197761 0 32.641791 38.4676471 31.9768657 39.4022059"></polyline>
                                <polygon fill="#E09045" points="0.120895522 34.8801471 27.6246269 41.8441176 0.241791045 77.3875"></polygon>
                                <polygon fill="#FFFFFF" points="60.7197761 0 60.7197761 0 33.3671642 38.5580882 60.8406716 42.5073529 60.8406716 42.5073529 60.8406716 42.5073529 32.6720149 39.4926471 30.4958955 42.5073529 28.2895522 41.9948529 0.241791045 77.3875 0.241791045 77.3875 0.241791045 77.3875 27.6246269 41.8441176 0.120895522 34.8801471 0.120895522 34.8801471 0.272014925 35.0308824 28.3197761 40.9397059 30.4958955 41.4522059 30.4958955 41.4522059 31.9768657 39.4022059 32.641791 38.4676471"></polygon>
                            </g>
                        </g>
                        <g id="Group" transform="translate(9.369403, 2.411765)">
                            <polygon id="Path" fill="#FED147" points="60.8406716 0.0602941176 60.9615672 42.5676471 33.4578358 38.6183824"></polygon>
                            <g id="Path">
                                <polygon fill="#FED147" points="33.5182836 39.1308824 60.9615672 42.5676471 0.362686567 77.4477941 29.1358209 41.6330882 31.3421642 42.1455882"></polygon>
                                <polyline fill="#FED147" points="30.616791 41.5125 28.4406716 41 0.241791045 34.9404412 60.8406716 0.0602941176 32.7626866 38.4977941 32.0675373 39.4625"></polyline>
                                <polygon fill="#FED147" points="0.241791045 34.9404412 27.7455224 41.9044118 0.362686567 77.4477941"></polygon>
                                <polygon fill="#FFFFFF" points="60.8406716 0.0602941176 60.8406716 0.0602941176 33.4578358 38.6183824 60.9615672 42.5676471 60.9615672 42.5676471 60.9615672 42.5676471 32.7929104 39.5227941 30.616791 42.5676471 28.4104478 42.0551471 0.362686567 77.4477941 0.362686567 77.4477941 0.362686567 77.4477941 27.7455224 41.9044118 0.241791045 34.9404412 0.241791045 34.9404412 0.362686567 35.0911765 28.4406716 41 30.616791 41.5125 30.616791 41.5125 32.0675373 39.4625 32.7626866 38.4977941"></polygon>
                            </g>
                        </g>
                        <g id="Group" transform="translate(19.947761, 4.522059)">
                            <polygon id="Path" fill="#F4F4F4" points="60.8104478 0.0904411765 60.9313433 42.5977941 33.4276119 38.6485294"></polygon>
                            <g id="Path">
                                <polygon fill="#F4F4F4" points="32.8835821 39.1610294 60.9313433 42.5977941 0.332462687 77.4779412 28.5011194 41.6632353 30.7074627 42.1757353"></polygon>
                                <polygon fill="#F4F4F4" points="30.5865672 41.8441176 28.4104478 41.3316176 0.211567164 34.9705882 60.8104478 0.0904411765 32.7324627 38.5279412 32.0675373 39.4926471"></polygon>
                                <polygon fill="#F4F4F4" points="0.211567164 34.9705882 27.7152985 41.9345588 0.332462687 77.4779412"></polygon>
                                <polygon fill="#CECECE" points="33.4276119 38.6485294 60.9313433 42.5977941 32.7626866 39.5529412 30.5865672 42.5977941 28.3802239 42.0852941 0.332462687 77.4779412 27.7152985 41.9345588 0.211567164 34.9705882 0.362686567 35.1213235 28.4104478 41.0301471 30.5865672 41.5426471 32.0675373 39.4926471 32.7324627 38.5279412 60.8104478 0.0904411765"></polygon>
                            </g>
                        </g>
                    </g>
                </g>
            </g>
        </g>
    </g>
</svg>