<?xml version="1.0" encoding="UTF-8"?>
<svg width="100px" height="82px" viewBox="0 0 100 82" version="1.1" xmlns="http://www.w3.org/2000/svg" xmlns:xlink="http://www.w3.org/1999/xlink">
    <!-- Generator: Sketch 55.2 (78181) - https://sketchapp.com -->
    <title>1-Ordinateur_part</title>
    <desc>Created with Sketch.</desc>
    <defs>
        <linearGradient x1="48.1000358%" y1="28.5622598%" x2="20.1787099%" y2="86.9878958%" id="linearGradient-1">
            <stop stop-color="#D9E2F2" offset="21%"></stop>
            <stop stop-color="#838FC5" offset="100%"></stop>
        </linearGradient>
        <polygon id="path-2" points="5.67131419e-06 0.113028524 31.7470685 0.113028524 31.7470685 27.1249369 5.67131419e-06 27.1249369"></polygon>
    </defs>
    <g id="Styleguide" stroke="none" stroke-width="1" fill="none" fill-rule="evenodd">
        <g id="PIctos" transform="translate(-170.000000, -402.000000)">
            <g id="1-Ordinateur_part" transform="translate(170.000000, 402.000000)">
                <g id="UI/illu/Laptop" transform="translate(20.000000, 0.000000)">
                    <g id="Laptop">
                        <path d="M79.04,51.9112903 C78.9805105,52.5671125 78.567024,53.1392996 77.96,53.4058065 L35.2133333,77.5032258 C33.4949873,77.6090386 31.7716794,77.6090386 30.0533333,77.5032258 C30.0533333,77.5032258 4.24,62.1612903 4.24,62.0422581 L4.24,64.6874194 C4.23430198,64.7578438 4.23430198,64.8286078 4.24,64.8990323 C4.37296334,65.3377977 4.66197298,65.7137701 5.05333333,65.9570968 L5.22666667,66.0893548 L5.22666667,66.0893548 L30.1466667,80.4393548 C31.7658258,81.2655755 33.6875076,81.2655755 35.3066667,80.4393548 L77.9733333,56.0112903 C78.5808993,55.7480225 78.9915367,55.1726748 79.04,54.5167742 L79.04,51.9112903 Z" id="Path" fill="#838FC5"></path>
                        <path d="M77.9866667,50.4432258 L53.1333333,36.1196774 C51.5125855,35.2999911 49.5940811,35.2999911 47.9733333,36.1196774 L5.33333333,60.5477419 C3.88,61.3677419 3.86666667,62.6903226 5.33333333,63.483871 L30.1466667,77.833871 C31.7627544,78.6533863 33.6772456,78.6533863 35.2933333,77.833871 L77.96,53.4058065 C78.6055651,53.1998238 79.0454372,52.6067107 79.0515551,51.9340649 C79.0575464,51.2614191 78.628421,50.6606097 77.9866667,50.4432258 Z" id="Path" fill="#C5D4EC"></path>
                        <path d="M59,42.9045161 L56.1733333,41.2645161 L55.5733333,40.9206452 L54.6666667,40.3651613 C54.4324826,40.2451432 54.154184,40.2451432 53.92,40.3651613 L50.84,42.1241935 C50.64,42.2432258 50.6266667,42.4283871 50.84,42.5474194 L52.4133333,43.4467742 C52.6475174,43.5667923 52.925816,43.5667923 53.16,43.4467742 L54.2666667,42.8119355 L56.7333333,44.2403226 C56.9661333,44.3461658 57.2338667,44.3461658 57.4666667,44.2403226 L59.0533333,43.3277419 C59.2133333,43.2087097 59.2133333,43.0103226 59,42.9045161 Z" id="Path" fill="#E9EDF7"></path>
                        <path d="M46.4666667,41.7670968 L48.04,42.6796774 C48.274184,42.7996955 48.5524826,42.7996955 48.7866667,42.6796774 L50.04,41.9522581 L50.36,41.7670968 L53.3333333,40.0609677 C53.4006392,40.0201082 53.4416784,39.9474675 53.4416784,39.8691935 C53.4416784,39.7909196 53.4006392,39.7182789 53.3333333,39.6774194 L51.76,38.7648387 C51.5238715,38.6530372 51.2494619,38.6530372 51.0133333,38.7648387 L48,40.4312903 L47.6666667,40.6296774 L46.4133333,41.343871 C46.2666667,41.4629032 46.2533333,41.6480645 46.4666667,41.7670968 Z" id="Path" fill="#E9EDF7"></path>
                        <path d="M52.8133333,50.1258065 L54.3866667,49.2264516 C54.5866667,49.1074194 54.6,48.9090323 54.3866667,48.79 L52.8266667,47.8906452 C52.5924826,47.7706271 52.314184,47.7706271 52.08,47.8906452 L50.4933333,48.79 C50.2933333,48.9090323 50.28,49.1074194 50.4933333,49.2264516 L52.0666667,50.1258065 C52.3008507,50.2458246 52.5791493,50.2458246 52.8133333,50.1258065 Z" id="Path" fill="#E9EDF7"></path>
                        <path d="M37.92,58.6564516 L39.4933333,57.743871 C39.5833597,57.711809 39.6434058,57.6271397 39.6434058,57.5322581 C39.6434058,57.4373765 39.5833597,57.3527071 39.4933333,57.3206452 L37.92,56.4212903 C37.685816,56.3012722 37.4075174,56.3012722 37.1733333,56.4212903 L35.6,57.3206452 C35.3866667,57.4396774 35.3866667,57.6248387 35.6,57.743871 L37.16,58.6564516 C37.397756,58.781077 37.682244,58.781077 37.92,58.6564516 Z" id="Path" fill="#E9EDF7"></path>
                        <path d="M30.6666667,59.5822581 L32.24,58.6696774 C32.4533333,58.5506452 32.4533333,58.3654839 32.24,58.2464516 L30.6666667,57.3470968 C30.4324826,57.2270787 30.154184,57.2270787 29.92,57.3470968 L28.3066667,58.1935484 C28.1066667,58.3125806 28.0933333,58.4977419 28.3066667,58.63 L29.88,59.5293548 C30.1154984,59.6803176 30.4127817,59.7003099 30.6666667,59.5822581 Z" id="Path" fill="#E9EDF7"></path>
                        <path d="M43.4933333,43.4732258 L45.0533333,44.3858065 C45.2906704,44.4921819 45.5626629,44.4921819 45.8,44.3858065 L47.3866667,43.4732258 C47.476693,43.4411639 47.5367392,43.3564945 47.5367392,43.2616129 C47.5367392,43.1667313 47.476693,43.082062 47.3866667,43.05 L45.8266667,42.1374194 C45.5924826,42.0174013 45.314184,42.0174013 45.08,42.1374194 L43.4933333,43.05 C43.28,43.1690323 43.28,43.3541935 43.4933333,43.4732258 Z" id="Path" fill="#E9EDF7"></path>
                        <path d="M51.7066667,43.8303226 L50.1333333,42.9177419 C49.8991493,42.7977238 49.6208507,42.7977238 49.3866667,42.9177419 L47.8133333,43.8303226 C47.6133333,43.9493548 47.6,44.1345161 47.8133333,44.2535484 L49.3733333,45.1529032 C49.6075174,45.2729213 49.885816,45.2729213 50.12,45.1529032 L51.7066667,44.2535484 C51.796693,44.2214864 51.8567392,44.1368171 51.8567392,44.0419355 C51.8567392,43.9470539 51.796693,43.8623845 51.7066667,43.8303226 Z" id="Path" fill="#E9EDF7"></path>
                        <path d="M52.1333333,45.033871 L53.6933333,45.9332258 C53.9275174,46.0532439 54.205816,46.0532439 54.44,45.9332258 L56,45.033871 C56.0875071,44.9960269 56.1440834,44.9103376 56.1440834,44.8156452 C56.1440834,44.7209527 56.0875071,44.6352635 56,44.5974194 L54.4666667,43.6451613 C54.2324826,43.5251432 53.954184,43.5251432 53.72,43.6451613 L52.1333333,44.5577419 C51.92,44.7296774 51.92,44.9677419 52.1333333,45.033871 Z" id="Path" fill="#E9EDF7"></path>
                        <path d="M40.5066667,45.1793548 L42.08,46.0919355 C42.3173371,46.1983109 42.5893296,46.1983109 42.8266667,46.0919355 L44.4133333,45.1793548 C44.6133333,45.0603226 44.6133333,44.8619355 44.4133333,44.756129 L42.84,43.8435484 C42.605816,43.7235303 42.3275174,43.7235303 42.0933333,43.8435484 L40.52,44.756129 C40.3066667,44.8751613 40.3066667,45.0603226 40.5066667,45.1793548 Z" id="Path" fill="#E9EDF7"></path>
                        <path d="M46.4133333,44.623871 L44.84,45.5364516 C44.6266667,45.6422581 44.6266667,45.8406452 44.84,45.9596774 L46.4,46.8590323 C46.634184,46.9790504 46.9124826,46.9790504 47.1466667,46.8590323 L48.72,45.9596774 C48.9333333,45.8406452 48.9333333,45.6422581 48.72,45.5364516 L47.1466667,44.623871 C46.9160917,44.5083571 46.6439083,44.5083571 46.4133333,44.623871 Z" id="Path" fill="#E9EDF7"></path>
                        <path d="M64.6666667,46.1580645 L63.0933333,45.2587097 C62.8638389,45.1387805 62.5894944,45.1387805 62.36,45.2587097 L60.7733333,46.1712903 C60.56,46.2770968 60.56,46.4754839 60.7733333,46.5945161 L62.3333333,47.493871 C62.5675174,47.6138891 62.845816,47.6138891 63.08,47.493871 L64.6666667,46.5945161 C64.7541738,46.556672 64.81075,46.4709828 64.81075,46.3762903 C64.81075,46.2815978 64.7541738,46.1959086 64.6666667,46.1580645 L64.6666667,46.1580645 Z" id="Path" fill="#E9EDF7"></path>
                        <path d="M51.4666667,47.6129032 L53.0533333,46.7135484 C53.1408405,46.6757043 53.1974167,46.5900151 53.1974167,46.4953226 C53.1974167,46.4006301 53.1408405,46.3149409 53.0533333,46.2770968 L51.48,45.3777419 C51.245816,45.2577238 50.9675174,45.2577238 50.7333333,45.3777419 L49.1466667,46.2903226 C49.0566403,46.3223845 48.9965942,46.4070539 48.9965942,46.5019355 C48.9965942,46.5968171 49.0566403,46.6814864 49.1466667,46.7135484 L50.6666667,47.6129032 C50.9149027,47.7519843 51.2184306,47.7519843 51.4666667,47.6129032 Z" id="Path" fill="#E9EDF7"></path>
                        <path d="M37.5333333,46.8854839 L39.1066667,47.7848387 C39.3408507,47.9048568 39.6191493,47.9048568 39.8533333,47.7848387 L41.4266667,46.8854839 C41.64,46.7664516 41.64,46.5680645 41.4266667,46.4622581 L39.8533333,45.5496774 C39.6191493,45.4296593 39.3408507,45.4296593 39.1066667,45.5496774 L37.52,46.4622581 C37.3333333,46.5812903 37.3333333,46.7664516 37.5333333,46.8854839 Z" id="Path" fill="#E9EDF7"></path>
                        <path d="M53.4666667,47.5203226 L55.04,48.4196774 C55.274184,48.5396955 55.5524826,48.5396955 55.7866667,48.4196774 L58.76,46.7135484 L59.88,46.0787097 L61.84,44.9677419 C61.9300263,44.93568 61.9900725,44.8510106 61.9900725,44.756129 C61.9900725,44.6612474 61.9300263,44.5765781 61.84,44.5445161 L60.2666667,43.6451613 C60.0336341,43.5205327 59.7530326,43.5205327 59.52,43.6451613 L57.56,44.756129 L56.4533333,45.4041935 L53.48,47.083871 C53.3912548,47.1190096 53.3319785,47.2030207 53.3290842,47.2977608 C53.32619,47.3925009 53.3802292,47.4799181 53.4666667,47.5203226 Z" id="Path" fill="#E9EDF7"></path>
                        <path d="M43.44,46.2903226 L41.8533333,47.2029032 C41.6533333,47.3087097 41.6533333,47.5070968 41.8533333,47.626129 L43.4266667,48.5254839 C43.6608507,48.645502 43.9391493,48.645502 44.1733333,48.5254839 L45.7466667,47.6129032 C45.9466667,47.493871 45.96,47.2954839 45.7466667,47.1896774 L44.1866667,46.2903226 C43.9524826,46.1703045 43.674184,46.1703045 43.44,46.2903226 Z" id="Path" fill="#E9EDF7"></path>
                        <path d="M61.6933333,47.8641935 L60.12,46.9648387 C59.885816,46.8448206 59.6075174,46.8448206 59.3733333,46.9648387 L57.7866667,47.8641935 C57.6991595,47.9020376 57.6425833,47.9877269 57.6425833,48.0824194 C57.6425833,48.1771118 57.6991595,48.2628011 57.7866667,48.3006452 L59.36,49.2 C59.594184,49.3200181 59.8724826,49.3200181 60.1066667,49.2 L61.6933333,48.3006452 C61.7808405,48.2628011 61.8374167,48.1771118 61.8374167,48.0824194 C61.8374167,47.9877269 61.7808405,47.9020376 61.6933333,47.8641935 L61.6933333,47.8641935 Z" id="Path" fill="#E9EDF7"></path>
                        <path d="M48.4933333,49.3454839 L50.0666667,48.446129 C50.1677689,48.4212538 50.2387643,48.3312291 50.2387643,48.2279032 C50.2387643,48.1245774 50.1677689,48.0345527 50.0666667,48.0096774 L48.5066667,47.1103226 C48.2724826,46.9903045 47.994184,46.9903045 47.76,47.1103226 L46.1733333,48.0229032 C46.083307,48.0549652 46.0232608,48.1396345 46.0232608,48.2345161 C46.0232608,48.3293977 46.083307,48.4140671 46.1733333,48.446129 L47.7466667,49.3454839 C47.9808507,49.465502 48.2591493,49.465502 48.4933333,49.3454839 Z" id="Path" fill="#E9EDF7"></path>
                        <path d="M34.56,48.5916129 L36.12,49.4909677 C36.354184,49.6109858 36.6324826,49.6109858 36.8666667,49.4909677 L38.4533333,48.5916129 C38.5408405,48.5537688 38.5974167,48.4680796 38.5974167,48.3733871 C38.5974167,48.2786946 38.5408405,48.1930054 38.4533333,48.1551613 L36.8933333,47.2558065 C36.6591493,47.1357884 36.3808507,47.1357884 36.1466667,47.2558065 L34.56,48.1683871 C34.3466667,48.2874194 34.3466667,48.4725806 34.56,48.5916129 Z" id="Path" fill="#E9EDF7"></path>
                        <path d="M40.4533333,48.036129 L38.88,48.9354839 C38.68,49.0545161 38.6666667,49.2529032 38.88,49.3719355 L40.44,50.2712903 C40.674184,50.3913084 40.9524826,50.3913084 41.1866667,50.2712903 L42.7733333,49.3719355 C42.8608405,49.3340914 42.9174167,49.2484022 42.9174167,49.1537097 C42.9174167,49.0590172 42.8608405,48.973328 42.7733333,48.9354839 L41.2,48.036129 C40.965816,47.9161109 40.6875174,47.9161109 40.4533333,48.036129 Z" id="Path" fill="#E9EDF7"></path>
                        <path d="M58.6666667,49.5703226 L57.1066667,48.6709677 C56.8724826,48.5509496 56.594184,48.5509496 56.36,48.6709677 L54.7733333,49.5703226 C54.5733333,49.6893548 54.56,49.8877419 54.7733333,50.0067742 L56.3466667,50.906129 C56.5808507,51.0261471 56.8591493,51.0261471 57.0933333,50.906129 L58.6666667,50.0067742 C58.7677689,49.9818989 58.8387643,49.8918742 58.8387643,49.7885484 C58.8387643,49.6852225 58.7677689,49.5951978 58.6666667,49.5703226 L58.6666667,49.5703226 Z" id="Path" fill="#E9EDF7"></path>
                        <path d="M45.5066667,51.0516129 L47.0933333,50.1522581 C47.1808405,50.114414 47.2374167,50.0287247 47.2374167,49.9340323 C47.2374167,49.8393398 47.1808405,49.7536505 47.0933333,49.7158065 L45.5333333,48.8164516 C45.2991493,48.6964335 45.0208507,48.6964335 44.7866667,48.8164516 L43.2,49.7290323 C42.9866667,49.8348387 42.9866667,50.0332258 43.2,50.1522581 L44.76,51.0516129 C44.994184,51.171631 45.2724826,51.171631 45.5066667,51.0516129 Z" id="Path" fill="#E9EDF7"></path>
                        <path d="M31.5733333,50.2580645 L33.1466667,51.1574194 C33.3808507,51.2774375 33.6591493,51.2774375 33.8933333,51.1574194 L35.48,50.2580645 C35.5675071,50.2202204 35.6240834,50.1345312 35.6240834,50.0398387 C35.6240834,49.9451462 35.5675071,49.859457 35.48,49.8216129 L33.9066667,48.9354839 C33.6724826,48.8154658 33.394184,48.8154658 33.16,48.9354839 L31.5866667,49.8480645 C31.5041042,49.8817125 31.4491367,49.9602916 31.4462588,50.0487851 C31.443381,50.1372785 31.4931288,50.2192083 31.5733333,50.2580645 L31.5733333,50.2580645 Z" id="Path" fill="#E9EDF7"></path>
                        <path d="M49.8266667,51.8319355 L51.4133333,50.9325806 C51.5008405,50.8947365 51.5574167,50.8090473 51.5574167,50.7143548 C51.5574167,50.6196624 51.5008405,50.5339731 51.4133333,50.496129 L49.84,49.5967742 C49.605816,49.4767561 49.3275174,49.4767561 49.0933333,49.5967742 L47.52,50.496129 C47.32,50.6151613 47.3066667,50.8135484 47.52,50.9325806 L49.08,51.8319355 C49.314184,51.9519536 49.5924826,51.9519536 49.8266667,51.8319355 L49.8266667,51.8319355 Z" id="Path" fill="#E9EDF7"></path>
                        <path d="M37.48,49.7422581 L35.9066667,50.6416129 C35.8055645,50.6664882 35.734569,50.7565129 35.734569,50.8598387 C35.734569,50.9631646 35.8055645,51.0531893 35.9066667,51.0780645 L37.4666667,51.9774194 C37.7008507,52.0974375 37.9791493,52.0974375 38.2133333,51.9774194 L39.7866667,51.0780645 C39.8741738,51.0402204 39.93075,50.9545312 39.93075,50.8598387 C39.93075,50.7651462 39.8741738,50.679457 39.7866667,50.6416129 L38.2133333,49.7422581 C37.9827584,49.6267442 37.7105749,49.6267442 37.48,49.7422581 L37.48,49.7422581 Z" id="Path" fill="#E9EDF7"></path>
                        <path d="M55.7333333,51.2764516 L54.1733333,50.3770968 C53.9391493,50.2570787 53.6608507,50.2570787 53.4266667,50.3770968 L51.84,51.2764516 C51.7388978,51.3013269 51.6679024,51.3913516 51.6679024,51.4946774 C51.6679024,51.5980033 51.7388978,51.688028 51.84,51.7129032 L53.4,52.6122581 C53.634184,52.7322762 53.9124826,52.7322762 54.1466667,52.6122581 L55.7333333,51.7129032 C55.8208405,51.6750591 55.8774167,51.5893699 55.8774167,51.4946774 C55.8774167,51.3999849 55.8208405,51.3142957 55.7333333,51.2764516 L55.7333333,51.2764516 Z" id="Path" fill="#E9EDF7"></path>
                        <path d="M42.5333333,52.7577419 L44.12,51.8583871 C44.2075071,51.820543 44.2640834,51.7348538 44.2640834,51.6401613 C44.2640834,51.5454688 44.2075071,51.4597796 44.12,51.4219355 L42.5466667,50.5225806 C42.3124826,50.4025625 42.034184,50.4025625 41.8,50.5225806 L40.2266667,51.4219355 C40.1391595,51.4597796 40.0825833,51.5454688 40.0825833,51.6401613 C40.0825833,51.7348538 40.1391595,51.820543 40.2266667,51.8583871 L41.8,52.7577419 C42.0305749,52.8732558 42.3027584,52.8732558 42.5333333,52.7577419 L42.5333333,52.7577419 Z" id="Path" fill="#E9EDF7"></path>
                        <path d="M28.6,52.003871 L30.1733333,52.9032258 C30.4075174,53.0232439 30.685816,53.0232439 30.92,52.9032258 L32.4933333,52.003871 C32.5808405,51.9660269 32.6374167,51.8803376 32.6374167,51.7856452 C32.6374167,51.6909527 32.5808405,51.6052635 32.4933333,51.5674194 L30.92,50.6680645 C30.685816,50.5480464 30.4075174,50.5480464 30.1733333,50.6680645 L28.6,51.5806452 C28.5099737,51.6127071 28.4499275,51.6973765 28.4499275,51.7922581 C28.4499275,51.8871397 28.5099737,51.971809 28.6,52.003871 Z" id="Path" fill="#E9EDF7"></path>
                        <path d="M46.8533333,53.5380645 L48.4266667,52.6387097 C48.5141738,52.6008656 48.57075,52.5151763 48.57075,52.4204839 C48.57075,52.3257914 48.5141738,52.2401022 48.4266667,52.2022581 L46.8533333,51.3029032 C46.6191493,51.1828851 46.3408507,51.1828851 46.1066667,51.3029032 L44.5333333,52.2022581 C44.4322311,52.2271333 44.3612357,52.317158 44.3612357,52.4204839 C44.3612357,52.5238097 44.4322311,52.6138344 44.5333333,52.6387097 L46.0933333,53.5380645 C46.3310893,53.6626899 46.6155774,53.6626899 46.8533333,53.5380645 L46.8533333,53.5380645 Z" id="Path" fill="#E9EDF7"></path>
                        <path d="M34.5066667,51.4483871 L32.92,52.3477419 C32.8324929,52.385586 32.7759166,52.4712753 32.7759166,52.5659677 C32.7759166,52.6606602 32.8324929,52.7463495 32.92,52.7841935 L34.4933333,53.6835484 C34.7275174,53.8035665 35.005816,53.8035665 35.24,53.6835484 L36.8133333,52.7841935 C36.9144355,52.7593183 36.985431,52.6692936 36.985431,52.5659677 C36.985431,52.4626419 36.9144355,52.3726172 36.8133333,52.3477419 L35.2533333,51.4483871 C35.0191493,51.328369 34.7408507,51.328369 34.5066667,51.4483871 Z" id="Path" fill="#E9EDF7"></path>
                        <path d="M52.76,52.9825806 L51.1866667,52.0832258 C50.9524826,51.9632077 50.674184,51.9632077 50.44,52.0832258 L48.8533333,52.9825806 C48.7658262,53.0204247 48.70925,53.106114 48.70925,53.2008065 C48.70925,53.2954989 48.7658262,53.3811882 48.8533333,53.4190323 L50.4266667,54.3183871 C50.6608507,54.4384052 50.9391493,54.4384052 51.1733333,54.3183871 L52.76,53.4058065 C52.96,53.3 52.96,53.1016129 52.76,52.9825806 Z" id="Path" fill="#E9EDF7"></path>
                        <path d="M39.56,54.463871 L41.1333333,53.5645161 C41.2208405,53.526672 41.2774167,53.4409828 41.2774167,53.3462903 C41.2774167,53.2515978 41.2208405,53.1659086 41.1333333,53.1280645 L39.56,52.2287097 C39.325816,52.1086916 39.0475174,52.1086916 38.8133333,52.2287097 L37.2266667,53.1280645 C37.0266667,53.2470968 37.0133333,53.4454839 37.2266667,53.5645161 L38.8,54.463871 C39.037756,54.5884964 39.322244,54.5884964 39.56,54.463871 L39.56,54.463871 Z" id="Path" fill="#E9EDF7"></path>
                        <path d="M25.6266667,53.71 L27.1866667,54.6093548 C27.4208507,54.7293729 27.6991493,54.7293729 27.9333333,54.6093548 L29.52,53.71 C29.6075071,53.6721559 29.6640834,53.5864667 29.6640834,53.4917742 C29.6640834,53.3970817 29.6075071,53.3113925 29.52,53.2735484 L28,52.3741935 C27.765816,52.2541754 27.4875174,52.2541754 27.2533333,52.3741935 L25.6666667,53.2735484 C25.4266667,53.3925806 25.4133333,53.5909677 25.6266667,53.71 Z" id="Path" fill="#E9EDF7"></path>
                        <path d="M43.88,55.2441935 L45.4533333,54.3448387 C45.5544355,54.3199635 45.625431,54.2299388 45.625431,54.1266129 C45.625431,54.023287 45.5544355,53.9332623 45.4533333,53.9083871 L43.8933333,53.0090323 C43.6591493,52.8890142 43.3808507,52.8890142 43.1466667,53.0090323 L41.56,53.9083871 C41.36,54.0274194 41.36,54.2125806 41.56,54.3448387 L43.1333333,55.2441935 C43.3675174,55.3642116 43.645816,55.3642116 43.88,55.2441935 L43.88,55.2441935 Z" id="Path" fill="#E9EDF7"></path>
                        <path d="M31.52,53.1545161 L29.9466667,54.053871 C29.7466667,54.1729032 29.7333333,54.3712903 29.9466667,54.4903226 L31.52,55.3896774 C31.7494944,55.5096066 32.0238389,55.5096066 32.2533333,55.3896774 L33.84,54.4903226 C33.9275071,54.4524785 33.9840834,54.3667893 33.9840834,54.2720968 C33.9840834,54.1774043 33.9275071,54.0917151 33.84,54.053871 L32.2666667,53.1545161 C32.0324826,53.034498 31.754184,53.034498 31.52,53.1545161 Z" id="Path" fill="#E9EDF7"></path>
                        <path d="M36.5733333,56.17 L38.16,55.2574194 C38.36,55.1516129 38.36,54.9532258 38.16,54.8341935 L36.6,53.9348387 C36.365816,53.8148206 36.0875174,53.8148206 35.8533333,53.9348387 L34.2666667,54.8341935 C34.1655645,54.8590688 34.094569,54.9490935 34.094569,55.0524194 C34.094569,55.1557452 34.1655645,55.2457699 34.2666667,55.2706452 L35.8266667,56.17 C36.0608507,56.2900181 36.3391493,56.2900181 36.5733333,56.17 L36.5733333,56.17 Z" id="Path" fill="#E9EDF7"></path>
                        <path d="M22.6666667,55.416129 L24.24,56.3154839 C24.474184,56.435502 24.7524826,56.435502 24.9866667,56.3154839 L26.5733333,55.416129 C26.6608405,55.3782849 26.7174167,55.2925957 26.7174167,55.1979032 C26.7174167,55.1032107 26.6608405,55.0175215 26.5733333,54.9796774 L25,54.0803226 C24.765816,53.9603045 24.4875174,53.9603045 24.2533333,54.0803226 L22.6666667,54.9796774 C22.5791595,55.0175215 22.5225833,55.1032107 22.5225833,55.1979032 C22.5225833,55.2925957 22.5791595,55.3782849 22.6666667,55.416129 L22.6666667,55.416129 Z" id="Path" fill="#E9EDF7"></path>
                        <path d="M40.8933333,56.9503226 L42.48,56.0509677 C42.5675071,56.0131236 42.6240834,55.9274344 42.6240834,55.8327419 C42.6240834,55.7380495 42.5675071,55.6523602 42.48,55.6145161 L40.9066667,54.7151613 C40.6724826,54.5951432 40.394184,54.5951432 40.16,54.7151613 L38.5866667,55.6145161 C38.3866667,55.7335484 38.3733333,55.9187097 38.5866667,56.0509677 L40.1466667,56.9503226 C40.3808507,57.0703407 40.6591493,57.0703407 40.8933333,56.9503226 L40.8933333,56.9503226 Z" id="Path" fill="#E9EDF7"></path>
                        <path d="M28.5466667,54.8606452 L26.9733333,55.76 C26.8722311,55.7848753 26.8012357,55.8749 26.8012357,55.9782258 C26.8012357,56.0815517 26.8722311,56.1715764 26.9733333,56.1964516 L28.5333333,57.0958065 C28.7675174,57.2158246 29.045816,57.2158246 29.28,57.0958065 L30.8666667,56.1964516 C30.9541738,56.1586075 31.01075,56.0729183 31.01075,55.9782258 C31.01075,55.8835333 30.9541738,55.7978441 30.8666667,55.76 L29.3333333,54.8606452 C29.08855,54.7264899 28.79145,54.7264899 28.5466667,54.8606452 Z" id="Path" fill="#E9EDF7"></path>
                        <path d="M33.6,57.876129 L35.1866667,56.9635484 C35.3866667,56.8577419 35.3866667,56.6593548 35.1866667,56.5403226 L33.6133333,55.6409677 C33.3791493,55.5209496 33.1008507,55.5209496 32.8666667,55.6409677 L31.2933333,56.5403226 C31.2058262,56.5781667 31.14925,56.6638559 31.14925,56.7585484 C31.14925,56.8532409 31.2058262,56.9389301 31.2933333,56.9767742 L32.8666667,57.876129 C33.0972416,57.9916429 33.3694251,57.9916429 33.6,57.876129 Z" id="Path" fill="#E9EDF7"></path>
                        <path d="M19.6666667,57.1222581 L21.24,58.0216129 C21.474184,58.141631 21.7524826,58.141631 21.9866667,58.0216129 L23.56,57.1222581 C23.6475071,57.084414 23.7040834,56.9987247 23.7040834,56.9040323 C23.7040834,56.8093398 23.6475071,56.7236505 23.56,56.6858065 L21.9866667,55.7864516 C21.7524826,55.6664335 21.474184,55.6664335 21.24,55.7864516 L19.6533333,56.6858065 C19.4666667,56.8709677 19.4533333,57.0032258 19.6666667,57.1222581 Z" id="Path" fill="#E9EDF7"></path>
                        <path d="M25.5733333,56.5667742 L24,57.466129 C23.8,57.5851613 23.8,57.7703226 24,57.9025806 L25.5733333,58.8019355 C25.8075174,58.9219536 26.085816,58.9219536 26.32,58.8019355 L27.8933333,57.9025806 C27.9944355,57.8777054 28.065431,57.7876807 28.065431,57.6843548 C28.065431,57.581029 27.9944355,57.4910043 27.8933333,57.466129 L26.3333333,56.5667742 C26.0955774,56.4421488 25.8110893,56.4421488 25.5733333,56.5667742 Z" id="Path" fill="#E9EDF7"></path>
                        <path d="M16.6933333,58.8283871 L18.2533333,59.7277419 C18.4875174,59.84776 18.765816,59.84776 19,59.7277419 L20.5866667,58.8151613 C20.676693,58.7830993 20.7367392,58.69843 20.7367392,58.6035484 C20.7367392,58.5086668 20.676693,58.4239974 20.5866667,58.3919355 L19.0266667,57.4925806 C18.7924826,57.3725625 18.514184,57.3725625 18.28,57.4925806 L16.6933333,58.3919355 C16.4933333,58.5109677 16.48,58.7093548 16.6933333,58.8283871 Z" id="Path" fill="#E9EDF7"></path>
                        <path d="M34.9466667,60.3625806 L36.52,59.516129 C36.7333333,59.4103226 36.7333333,59.2119355 36.52,59.0929032 L34.96,58.1935484 C34.725816,58.0735303 34.4475174,58.0735303 34.2133333,58.1935484 L32.6266667,59.0929032 C32.5366403,59.1249652 32.4765942,59.2096345 32.4765942,59.3045161 C32.4765942,59.3993977 32.5366403,59.4840671 32.6266667,59.516129 L34.2,60.4287097 C34.4449034,60.5285366 34.7234662,60.5038655 34.9466667,60.3625806 Z" id="Path" fill="#E9EDF7"></path>
                        <path d="M23.32,60.5080645 L24.9066667,59.5954839 C25.12,59.4764516 25.1066667,59.2912903 24.9066667,59.1722581 L23.3333333,58.2729032 C23.0991493,58.1528851 22.8208507,58.1528851 22.5866667,58.2729032 L21.0133333,59.1722581 C20.8133333,59.2912903 20.8,59.4764516 21.0133333,59.5954839 L22.5866667,60.5080645 C22.8161611,60.6279937 23.0905056,60.6279937 23.32,60.5080645 L23.32,60.5080645 Z" id="Path" fill="#E9EDF7"></path>
                        <path d="M49.7733333,54.6887097 L48.2133333,53.7893548 C47.9791493,53.6693367 47.7008507,53.6693367 47.4666667,53.7893548 L45.88,54.6887097 L44.5466667,55.4954839 L42.96,56.3948387 L41.56,57.2016129 L40,58.1009677 L37.0133333,59.8070968 C36.8133333,59.926129 36.8,60.1112903 37.0133333,60.2303226 L38.5866667,61.1429032 C38.8208507,61.2629213 39.0991493,61.2629213 39.3333333,61.1429032 L42.3066667,59.4367742 L43.8933333,58.5241935 L45.2266667,57.7306452 L46.8,56.8709677 L48.1333333,56.0774194 L49.7066667,55.1648387 C49.9866667,55.006129 49.9866667,54.8077419 49.7733333,54.6887097 Z" id="Path" fill="#E9EDF7"></path>
                        <path d="M27.6666667,59.0532258 C27.4336341,58.9285972 27.1530326,58.9285972 26.92,59.0532258 L25.3333333,59.9525806 C25.1333333,60.0716129 25.12,60.2567742 25.3333333,60.3890323 L26.8933333,61.2883871 C27.1275174,61.4084052 27.405816,61.4084052 27.64,61.2883871 L29.2266667,60.3758065 C29.316693,60.3437445 29.3767392,60.2590751 29.3767392,60.1641935 C29.3767392,60.069312 29.316693,59.9846426 29.2266667,59.9525806 L27.6666667,59.0532258 Z" id="Path" fill="#E9EDF7"></path>
                        <path d="M13.7066667,60.5345161 L15.28,61.433871 C15.514184,61.5538891 15.7924826,61.5538891 16.0266667,61.433871 L17.6133333,60.5212903 C17.8133333,60.4154839 17.8133333,60.2170968 17.6133333,60.0980645 L16,59.1987097 C15.765816,59.0786916 15.4875174,59.0786916 15.2533333,59.1987097 L13.68,60.0980645 C13.5944494,60.140898 13.542787,60.2301083 13.5485843,60.3249922 C13.5543816,60.4198762 13.6165273,60.5022447 13.7066667,60.5345161 Z" id="Path" fill="#E9EDF7"></path>
                        <path d="M32,62.0687097 L33.5866667,61.156129 C33.676693,61.1240671 33.7367392,61.0393977 33.7367392,60.9445161 C33.7367392,60.8496345 33.676693,60.7649652 33.5866667,60.7329032 L32,59.8335484 C31.7669674,59.7089198 31.4863659,59.7089198 31.2533333,59.8335484 L29.68,60.7329032 C29.48,60.8519355 29.4666667,61.0370968 29.68,61.156129 L31.2533333,62.0687097 C31.4863659,62.1933382 31.7669674,62.1933382 32,62.0687097 L32,62.0687097 Z" id="Path" fill="#E9EDF7"></path>
                        <path d="M20.36,59.9790323 C20.125816,59.8590142 19.8475174,59.8590142 19.6133333,59.9790323 L18.04,60.8387097 C17.8266667,60.9577419 17.8266667,61.1429032 18.04,61.2619355 L19.6,62.1612903 C19.834184,62.2813084 20.1124826,62.2813084 20.3466667,62.1612903 L21.9333333,61.2487097 C22.1333333,61.1429032 22.1333333,60.9445161 21.9333333,60.8254839 L20.36,59.9790323 Z" id="Path" fill="#E9EDF7"></path>
                        <path d="M37.8666667,61.5132258 L36.3066667,60.6006452 C36.0705381,60.4888437 35.7961285,60.4888437 35.56,60.6006452 L33.9733333,61.5132258 C33.76,61.6322581 33.76,61.8174194 33.9733333,61.9364516 L35.5333333,62.8490323 C35.7675174,62.9690504 36.045816,62.9690504 36.28,62.8490323 L37.8666667,61.9364516 C37.956693,61.9043897 38.0167392,61.8197203 38.0167392,61.7248387 C38.0167392,61.6299571 37.956693,61.5452878 37.8666667,61.5132258 Z" id="Path" fill="#E9EDF7"></path>
                        <path d="M22.3466667,62.0819355 L23.92,62.9945161 C24.154184,63.1145342 24.4324826,63.1145342 24.6666667,62.9945161 L26.2533333,62.0819355 C26.3433597,62.0498735 26.4034058,61.9652042 26.4034058,61.8703226 C26.4034058,61.775441 26.3433597,61.6907716 26.2533333,61.6587097 L24.68,60.746129 C24.4438715,60.6343275 24.1694619,60.6343275 23.9333333,60.746129 L22.36,61.6587097 C22.1466667,61.7777419 22.1466667,61.9629032 22.3466667,62.0819355 Z" id="Path" fill="#E9EDF7"></path>
                        <path d="M14.6666667,61.8041935 L13.0666667,60.9048387 C12.8336341,60.7802101 12.5530326,60.7802101 12.32,60.9048387 L10.7466667,61.8041935 C10.5333333,61.9232258 10.52,62.1083871 10.7466667,62.2406452 L12.32,63.14 C12.554184,63.2600181 12.8324826,63.2600181 13.0666667,63.14 L14.6666667,62.2274194 C14.84,62.1612903 14.84,61.9232258 14.6666667,61.8041935 Z" id="Path" fill="#E9EDF7"></path>
                        <path d="M28.9866667,63.7748387 L30.5733333,62.8622581 C30.6633597,62.8301961 30.7234058,62.7455268 30.7234058,62.6506452 C30.7234058,62.5557636 30.6633597,62.4710942 30.5733333,62.4390323 L29,61.5396774 C28.7689805,61.4073739 28.4843528,61.4073739 28.2533333,61.5396774 L26.6666667,62.4390323 C26.4533333,62.5580645 26.4533333,62.7432258 26.6666667,62.8622581 L28.2266667,63.7748387 C28.4644226,63.8994641 28.7489107,63.8994641 28.9866667,63.7748387 Z" id="Path" fill="#E9EDF7"></path>
                        <path d="M34.8933333,63.2193548 L33.3333333,62.3067742 C33.0991493,62.1867561 32.8208507,62.1867561 32.5866667,62.3067742 L31.0133333,63.2193548 C30.8,63.3383871 30.8,63.5235484 31.0133333,63.6425806 L32.5866667,64.5551613 C32.8208507,64.6751794 33.0991493,64.6751794 33.3333333,64.5551613 L34.92,63.6425806 C35.0084601,63.6053118 35.0636092,63.5167573 35.0576141,63.4216096 C35.051619,63.3264619 34.9857832,63.245408 34.8933333,63.2193548 Z" id="Path" fill="#E9EDF7"></path>
                        <path d="M18.9466667,62.5845161 L17.3333333,61.6851613 C17.0991493,61.5651432 16.8208507,61.5651432 16.5866667,61.6851613 L13.5733333,63.483871 C13.4858262,63.5217151 13.42925,63.6074043 13.42925,63.7020968 C13.42925,63.7967893 13.4858262,63.8824785 13.5733333,63.9203226 L15.1466667,64.8196774 C15.3808507,64.9396955 15.6591493,64.9396955 15.8933333,64.8196774 L18.96,63.0606452 C19.16,62.8887097 19.16,62.7035484 18.9466667,62.5845161 Z" id="Path" fill="#E9EDF7"></path>
                        <path d="M23.6933333,64.5683871 L25.2666667,65.4809677 C25.5040037,65.5873432 25.7759963,65.5873432 26.0133333,65.4809677 L27.5866667,64.5683871 C27.8,64.4493548 27.8,64.2641935 27.5866667,64.1451613 L26.0266667,63.2325806 C25.7905381,63.1207792 25.5161285,63.1207792 25.28,63.2325806 L23.6933333,64.1451613 C23.603307,64.1772232 23.5432608,64.2618926 23.5432608,64.3567742 C23.5432608,64.4516558 23.603307,64.5363251 23.6933333,64.5683871 L23.6933333,64.5683871 Z" id="Path" fill="#E9EDF7"></path>
                        <path d="M31.92,64.9254839 L30.3466667,64.0129032 C30.1124826,63.8928851 29.834184,63.8928851 29.6,64.0129032 L28,64.9254839 C27.8,65.0445161 27.7866667,65.2296774 28,65.3487097 L29.5733333,66.2612903 C29.8106704,66.3676658 30.0826629,66.3676658 30.32,66.2612903 L31.8933333,65.3487097 C32.12,65.2296774 32.12,65.0312903 31.92,64.9254839 Z" id="Path" fill="#E9EDF7"></path>
                        <path d="M23.2666667,63.7880645 C23.48,63.6690323 23.48,63.483871 23.2666667,63.3648387 L21.6933333,62.4522581 C21.4572048,62.3404566 21.1827952,62.3404566 20.9466667,62.4522581 L19.36,63.3648387 L16.4,65.0709677 C16.2,65.19 16.1866667,65.3751613 16.4,65.4941935 L17.96,66.4067742 C18.197756,66.5313996 18.482244,66.5313996 18.72,66.4067742 L21.6933333,64.713871 L23.2666667,63.7880645 Z" id="Path" fill="#E9EDF7"></path>
                        <path d="M28.9333333,66.6316129 L27.3733333,65.7190323 C27.1391493,65.5990142 26.8608507,65.5990142 26.6266667,65.7190323 L25.04,66.6316129 C24.84,66.7506452 24.8266667,66.9358065 25.04,67.0548387 L26.6,67.9674194 C26.8373371,68.0737948 27.1093296,68.0737948 27.3466667,67.9674194 L28.9333333,67.0548387 C29.1333333,66.9358065 29.1466667,66.7374194 28.9333333,66.6316129 Z" id="Path" fill="#E9EDF7"></path>
                        <path d="M24.6133333,65.8512903 L23.04,64.9387097 C22.805816,64.8186916 22.5275174,64.8186916 22.2933333,64.9387097 L19.24,66.6977419 C19.0266667,66.8167742 19.0133333,67.0151613 19.24,67.1341935 L20.8133333,68.0335484 C21.0475174,68.1535665 21.325816,68.1535665 21.56,68.0335484 L24.6266667,66.2745161 C24.8266667,66.1290323 24.8133333,65.9703226 24.6133333,65.8512903 Z" id="Path" fill="#E9EDF7"></path>
                        <path d="M25.96,68.3245161 L24.3866667,67.4516129 C24.1524826,67.3315948 23.874184,67.3315948 23.64,67.4516129 L22.0666667,68.3509677 C21.8533333,68.4832258 21.8533333,68.6683871 22.0666667,68.7874194 L23.64,69.6867742 C23.874184,69.8067923 24.1524826,69.8067923 24.3866667,69.6867742 L25.96,68.7741935 C26.0564687,68.7408927 26.1211189,68.6506744 26.1211189,68.5493548 C26.1211189,68.4480353 26.0564687,68.3578169 25.96,68.3245161 L25.96,68.3245161 Z" id="Path" fill="#E9EDF7"></path>
                        <path d="M50.8133333,0.158709677 L50.68,0.158709677 C50.380306,0.066972108 50.059694,0.066972108 49.76,0.158709677 C49.4873893,0.22470971 49.2265846,0.331758582 48.9866667,0.476129032 L3.85333333,26.3458065 C3.68721142,26.4470092 3.52695842,26.5573985 3.37333333,26.6764516 C2.26990795,27.5114928 1.53810302,28.7403094 1.33333333,30.1019355 C1.33333333,30.273871 1.33333333,30.5912903 1.33333333,30.75 L1.33333333,59.1458065 C1.26630893,59.8099185 1.56741431,60.4578959 2.12,60.8387097 L3.56,61.6851613 C3.01613549,61.3214939 2.71474366,60.6931686 2.77333333,60.0451613 L3.14666667,31.7154839 C3.78565953,30.2565082 4.51597258,28.8385818 5.33333333,27.47 L50.5466667,1.66645161 C51.0905711,1.39054822 51.6627299,1.17328508 52.2533333,1.0183871 L50.8133333,0.158709677 Z" id="Path" fill="url(#linearGradient-1)"></path>
                        <path d="M53,2.64516129 C53,1.0183871 51.84,0.370322581 50.4266667,1.19032258 L5.33333333,27.1922581 C3.67634262,28.0234918 2.6832514,29.7591132 2.81333333,31.5964516 L2.81333333,59.9922581 C2.81333333,61.6058065 4.01333333,62.2670968 5.48,61.4470968 L50.52,35.4583871 C52.020197,34.472212 52.9447746,32.8253382 53,31.0409677 L53,2.64516129 Z" id="Path" fill="#ADBBDE"></path>
                        <polygon id="Path" fill="#FED147" points="51 32.8 4.90666667 59.3441935 4.90666667 29.8506452 51 3.30645161"></polygon>
                        <path d="M40.8133333,62.253871 C40.24,62.5845161 40.24,63.1135484 40.8133333,63.4309677 L47.32,67.1870968 C47.9671882,67.5038945 48.7261451,67.5038945 49.3733333,67.1870968 L62.0666667,59.8864516 C62.3207725,59.8007836 62.4916736,59.5641204 62.4916736,59.2979032 C62.4916736,59.0316861 62.3207725,58.7950228 62.0666667,58.7093548 L55.56,54.9532258 C54.9128118,54.6364281 54.1538549,54.6364281 53.5066667,54.9532258 L40.8133333,62.253871 Z" id="Path" fill="#D9E2F2"></path>
                    </g>
                    <g id="UI/illu/La-Poste" transform="translate(14.666667, 18.516129)">
                        <g id="Group-8">
                            <g id="Group-3" transform="translate(0.000000, 0.324537)">
                                <mask id="mask-3" fill="white">
                                    <use xlink:href="#path-2"></use>
                                </mask>
                                <g id="Clip-2"></g>
                                <path d="M31.415189,0.2510375 C31.9412164,-0.0552125 31.765874,0.20685 31.415189,0.4697875 C20.5001205,9.1322875 12.3466959,16.4822875 0.0727232877,27.1131 C-0.0149479452,27.1572875 -0.0149479452,27.0697875 0.0284493151,26.9822875 C7.13025753,19.80685 9.14669589,17.4447875 10.0234082,16.30685 C11.7329973,14.11935 12.565874,12.36935 12.4782027,11.5385375 L31.415189,0.2510375 Z" id="Fill-1" fill="#063F8E" mask="url(#mask-3)"></path>
                            </g>
                            <path d="M22.4725479,1.5817375 C22.736,1.4504875 22.8670685,1.3629875 22.9551781,1.3188 C24.6204932,0.3567375 24.5766575,1.6254875 23.8318904,3.28755 C23.5246027,3.9879875 23.3935342,4.2067375 23.0862466,4.8188 L12.2154521,11.2067375 C10.7246027,10.5504875 7.87528767,10.9438 6.16569863,11.2067375 C5.90268493,11.2504875 5.99035616,11.16255 6.20953425,11.0317375 C6.25336986,11.0317375 6.25336986,10.9879875 6.29764384,10.9879875 C7.74378082,10.1567375 19.7985753,3.1567375 22.4725479,1.5817375" id="Fill-4" fill="#063F8E"></path>
                            <path d="M20.0179288,10.943975 C20.0617644,10.900225 20.0617644,10.9881625 20.0179288,11.031475 L17.8699836,15.4506625 C17.5626959,16.1069125 16.9932712,17.156475 16.2042301,17.6381625 L3.05354521,25.687725 C2.96587397,25.7319125 3.00970959,25.6444125 3.00970959,25.6444125 L20.0179288,10.943975 C20.0179288,10.9881625 20.0179288,10.9881625 20.0179288,10.943975" id="Fill-6" fill="#063F8E"></path>
                        </g>
                    </g>
                </g>
                <g id="1" transform="translate(0.000000, 5.000000)">
                    <path d="M0.556349186,15.5563492 C0.556349186,23.8268037 7.28589464,30.5563492 15.5563492,30.5563492 C23.8268037,30.5563492 30.5563492,23.8268037 30.5563492,15.5563492 C30.5563492,7.28589464 23.8268037,0.556349186 15.5563492,0.556349186 C7.28589464,0.556349186 0.556349186,7.28589464 0.556349186,15.5563492 Z" id="Fill-13" fill="#20458F"></path>
                    <text font-family="Montserrat-Bold, Montserrat" font-size="16" font-weight="bold" line-spacing="22" fill="#FFFFFF">
                        <tspan x="11.064" y="20">1</tspan>
                    </text>
                </g>
            </g>
        </g>
    </g>
</svg>