<svg xmlns="http://www.w3.org/2000/svg" xmlns:xlink="http://www.w3.org/1999/xlink" width="81" height="82" version="1.1" viewBox="0 0 81 82"><title>2-Cadena_part</title><desc>Created with Sketch.</desc><defs><linearGradient id="linearGradient-1" x1="75.54%" x2="37.165%" y1="77.132%" y2="1.752%"><stop offset="0%" stop-color="#F59131"/><stop offset="7%" stop-color="#F69631"/><stop offset="15%" stop-color="#F7A330"/><stop offset="23%" stop-color="#FAB92F"/><stop offset="32%" stop-color="#FFD72E"/><stop offset="32%" stop-color="#FFDA2E"/><stop offset="100%" stop-color="#FFC830"/></linearGradient><linearGradient id="linearGradient-2" x1="75.331%" x2="34.879%" y1="84.329%" y2="-5.913%"><stop offset="0%" stop-color="#ADBBDE"/><stop offset="69%" stop-color="#EEF1F8"/></linearGradient></defs><g id="Styleguide" fill="none" fill-rule="evenodd" stroke="none" stroke-width="1"><g id="PIctos" transform="translate(-381.000000, -402.000000)"><g id="2-Cadena_part" transform="translate(381.000000, 402.000000)"><g id="UI/illu/Lock" transform="translate(51.000000, 41.000000) scale(-1, 1) translate(-51.000000, -41.000000) translate(21.000000, 0.000000)"><g id="Fichier-1"><polygon id="Path" fill="#9397A0" points="18.438 50.76 18.422 58.172 33.389 49.538 33.422 42.125"/><polygon id="Path" fill="#9397A0" points="33.389 49.538 18.422 58.172 25.832 62.416 40.8 53.782"/><path id="Path" fill="#254D60" d="M33.6,34.44 L18.227027,42.8811765 C15.5837838,44.392549 16.6054054,48.6533333 18.4054054,50.6952941 C18.4054054,50.6952941 18.4054054,50.6952941 18.4054054,50.6952941 L33.3891892,42.0611765 C33.3081081,42.1898039 32.4324324,35.1313725 33.6,34.44 Z"/><path id="Path" fill="url(#linearGradient-1)" d="M43.4918919,55.1811765 C43.7837838,55.0043137 1.8972973,23.6996078 1.62162162,23.8443137 L16.6054054,15.2101961 C17.913835,14.6516741 19.4197153,14.797341 20.5945946,15.5960784 L49.5405405,32.1568627 C54.227027,34.8419608 59.0756757,37.9129412 59.2702703,43.9262745 L59.2702703,68.6227451 C59.3998188,70.0124089 58.7841828,71.3675082 57.6486486,72.1921569 L42.6486486,80.8262745 C43.6864865,80.2313725 44.1405405,60.7603922 44.2702703,54.6345098 L43.4918919,55.1811765 Z"/><path id="Shape" fill="#FBB631" fill-rule="nonzero" d="M38.7567568,43.1866667 L5.62702703,24.2301961 C2.52972973,22.5098039 0,23.8764706 0,27.4137255 L0,51.8529412 C0.171665637,55.763116 2.22933146,59.3528797 5.52972973,61.5 L38.6594595,80.3921569 C41.7567568,82.1607843 44.2702703,80.7458824 44.2864865,77.1764706 L44.2864865,52.8176471 C44.1123365,48.9124849 42.054641,45.3286524 38.7567568,43.1866667 Z M25.7837838,54.9882353 L25.7837838,62.4164706 L18.3567568,58.1717647 L18.3567568,50.7596078 C17.5672548,49.3785812 17.1276426,47.8281832 17.0756757,46.2415686 C17.0756757,43.0258824 19.3297297,41.8360784 22.0864865,43.4278431 C25.0230679,45.3172693 26.8729138,48.4836797 27.0648649,51.9494118 C27.1842232,53.0984893 26.7301782,54.2329608 25.8486486,54.9882353 L25.7837838,54.9882353 Z"/><path id="Path" fill="#ADBBDE" d="M22.2486486,10.5796078 C20.9027027,11.254902 19.4594595,11.8980392 19.3621622,13.6184314 C19.3621622,14.6635294 19.6378378,26.7705882 19.6378378,27.4298039 L27.0648649,23.1690196 L27.0648649,10.0490196 C25.4477149,9.64051094 23.7359148,9.82909487 22.2486486,10.5796078 L22.2486486,10.5796078 Z"/><path id="Path" fill="url(#linearGradient-2)" d="M46.0216216,20.4839216 C45.9436279,18.5117375 45.5154487,16.5686453 44.7567568,14.7439216 C44.1686552,13.2292542 43.4126676,11.7840512 42.5027027,10.434902 C41.7427331,9.28815844 40.8797615,8.2118828 39.9243243,7.21921569 C37.2972973,4.6627451 33.8918919,3.07098039 30.8108108,1.28627451 L30.4702703,1.1254902 C28.9163744,0.188755965 27.0753839,-0.164905233 25.2810811,0.128627451 L24.7459459,0.273333333 L24.7459459,0.273333333 C24.4900489,0.369423463 24.2408544,0.482219546 24,0.610980392 L16.572973,4.90392157 C19.4594595,3.21568627 38.6432432,21.1913725 38.627027,25.1788235 L38.627027,38.2988235 L46.0378378,34.0219608 L46.0378378,20.9019608 C46.0378378,20.7733333 46.0216216,20.6286275 46.0216216,20.4839216 Z"/><path id="Path" fill="#D9E2F2" d="M29.1891892,8.84313725 L23.4486486,5.62745098 C18.1783784,2.62078431 13.8810811,5.04862745 13.8648649,11.0298039 L13.8648649,24.1176471 L19.7189189,27.4780392 L19.7189189,14.3098039 C19.7189189,12.0105882 21.3405405,11.0941176 23.4324324,12.2356863 L29.172973,15.5317647 C31.3276982,16.9333408 32.6821316,19.2670464 32.8216216,21.8184314 L32.8216216,34.9384314 L38.7082878,38.2988235 L38.7082878,25.1788235 C38.7405405,15.7247059 34.3783784,11.8658824 29.1891892,8.84313725 Z"/></g></g><g id="1-copy" transform="translate(0.000000, 5.000000)"><path id="Fill-13" fill="#20458F" d="M0.556349186,15.5563492 C0.556349186,23.8268037 7.28589464,30.5563492 15.5563492,30.5563492 C23.8268037,30.5563492 30.5563492,23.8268037 30.5563492,15.5563492 C30.5563492,7.28589464 23.8268037,0.556349186 15.5563492,0.556349186 C7.28589464,0.556349186 0.556349186,7.28589464 0.556349186,15.5563492 Z"/><text id="2" fill="#FFF" font-family="Montserrat-Bold, Montserrat" font-size="16" font-weight="bold" line-spacing="22"><tspan x="11.064" y="20">2</tspan></text></g></g></g></g></svg>